<?xml version="1.0" encoding="UTF-8"?>
<svg id="Layer_1" xmlns="http://www.w3.org/2000/svg" version="1.1" viewBox="0 0 80 80">
  <!-- Generator: Adobe Illustrator 29.6.1, SVG Export Plug-In . SVG Version: 2.1.1 Build 9)  -->
  <defs>
    <style>
      .st0 {
        fill: #fff;
      }

      .st1 {
        fill: #8dc63f;
      }
    </style>
  </defs>
  <path class="st1" d="M39.18,37.77c-1.81.66-3.2.87-4.72,2.22-3.16,2.8-3.98,7.91-4.01,8h0c-1.32,3.75-1.41,3.75-1.41,3.75-1.37.05-10.3-23.13.83-34.01,6.2-6.06,18.4-8.07,22.46-3.91,3.26,3.34.65,10,.14,11.31-2.02,5.16-7.15,10.4-13.29,12.64Z"/>
  <path class="st0" d="M52.2,14.51c-3.14,4.83-6.51,8.1-9.03,10.2-5.25,4.39-9.84,6.26-13.5,12-1,1.56-1.84,3-2,2.92-.2-.1.6-2.59,2.09-5.01,1.66-2.68,3.24-3.77,2.93-4.31-.19-.32-1.04-.43-4.1.63-.83.08-1.67.16-2.5.24,1.79-.93,3.35-1.4,4.41-1.66,2.13-.52,2.6-.25,3.87-.87,1.49-.73,1.42-1.37,3.34-2.42,1.34-.73,2.22-.88,2.17-1.12-.05-.24-.93-.47-4.53-.46-2.03.31-4.05.62-6.08.93,1.75-.93,3.35-1.45,4.51-1.75,1.24-.32,1.99-.52,3.09-.58,2.36-.12,3.23.56,4.27.01.74-.39.44-.8,1.53-2.02,1.11-1.23,1.92-1.38,1.83-1.79-.16-.7-2.81-1.07-5.16-.99-4.05.14-6.67,1.57-6.76,1.43-.1-.16,2.82-2.61,6.85-2.61,3.11,0,4.82,1.45,6.76.52.43-.2,1.03-.8,2.24-1.99.92-.9,1.65-1.68,2.13-2.22"/>
  <g>
    <path class="st1" d="M38.45,44.21c-1.52,2.17-7.3,10.1-4.28,19.52,1.88,5.86,7.25,13.43,13.45,13.76,4.01.21,7.9-2.63,8.66-6.99.79-4.54-2.05-9.4-3.84-12.48-1.37-2.36-2.02-2.78-2.81-3.87,0,0-.45-.64-.91-1.49-2.39-4.41-2.84-7.69-2.84-7.69-.63-4.54,1.41-7.02.52-7.5-1.11-.59-5.14,2.76-7.95,6.75Z"/>
    <path class="st0" d="M50.25,78.01c-.16-5.21-1.21-9.21-2.13-11.89-2.01-5.84-4.55-8.68-4.98-14.99-.19-2.76.12-4.86-.15-4.89-.33-.03-1.53,3.09-.84,6.44.36,1.76,1.14,3.1.9,3.14-.3.05-1.52-1.57-2.63-3.14-.55-.61-1.11-1.22-1.66-1.84.88,1.74,1.78,3.07,2.42,3.93,1.29,1.74,1.73,1.91,2.36,3.12.75,1.42.43,1.74,1.35,3.63.64,1.32,1.2,2,1.06,2.11-.13.1-.85-.37-3.38-2.83-1.3-1.55-2.6-3.11-3.9-4.66.85,1.71,1.76,3.09,2.45,4.05.74,1.02,1.18,1.64,1.94,2.42,1.61,1.67,2.51,1.88,3.02,2.9.36.72-.02.75.24,2.18.27,1.44.78,2.09.55,2.25-.41.29-2.42-1.31-4.05-2.95-2.8-2.84-4.05-5.42-4.17-5.4-.14.02.91,3.39,3.75,6.13,2.19,2.11,4,2.46,4.98,4.31.22.4.4,1.15.75,2.65.27,1.12.46,2.06.58,2.7"/>
  </g>
  <path class="st1" d="M40.93,3.88c.41-.22.99-.43,1.56-.3.85.2,1.11,1.06,1.58.97.32-.06.56-.52.53-.91-.07-.9-1.65-1.75-3.11-1.64-1.44.11-2.3,1.14-2.49,1.38-.99,1.27-.74,2.92.03,4,.19.26.98,1.37,2.49,1.56.21.03,1.29.14,2.25-.47.13-.08,1.29-.83,1.07-1.64-.1-.37-.49-.77-.88-.75-.51.02-.57.74-1.4,1.05-.08.03-.59.22-1.12.08-.93-.23-1.52-1.33-1.29-2.25.14-.57.57-.93.79-1.1Z"/>
  <g>
    <path class="st1" d="M51.97,7.03c-.53,1.57-2.4,3.35-4.68,2.64-2.8-1.26-2.31-4.57-.56-6.14,3.21-2.72,6.3.54,5.26,3.43l-.02.07Z"/>
    <path class="st0" d="M50.1,4.49c-.39.52-.49.95-.52,1.25-.05.55.16.78-.02,1.31-.06.18-.2.56-.59.77-.08.04-.43.23-.81.12-.45-.13-.61-.59-.68-.8,0,0-.15-.42-.04-.87.17-.76,1.22-1.47,2.66-1.79Z"/>
  </g>
  <path class="st1" d="M34.52,4.15c.17-.04.44-.08.76-.04.98.15,1.35,1.01,1.78.89.32-.09.51-.62.42-1.04-.2-.96-1.97-1.73-3.46-1.45-1.48.27-2.22,1.47-2.38,1.75-.85,1.48-.35,3.23.6,4.32.23.26,1.22,1.39,2.81,1.44.22,0,1.36.02,2.27-.74.12-.1,1.22-1.03.87-1.89-.16-.39-.62-.78-1.03-.72-.53.07-.49.86-1.3,1.28-.12.06-.58.29-1.15.2-.72-.11-1.37-.67-1.27-.93.14-.39,1.95-.38,2.39-.76.03-.03.11-.09.14-.2.05-.21-.14-.41-.2-.46-.51-.45-2.13.78-2.72.33-.32-.23-.21-.83-.03-1.18.26-.51.85-.83,1.51-.82Z"/>
  <path class="st1" d="M29.37,7.54h0s.37-1.04.05-1.3c-.29-.22-1.06.21-1.11.23-.79.45-1.54,1.44-1.43,2.6.1,1.08.92,1.95,1.75,2.29.76.32,1.99.39,1.99.39h0s.64-.07,1.12-.39c0,0,.02-.02.02-.02q-.17-.18-.52-.55.35.37.52.55c-.3-.47-.76-.99-1.38-1.04-.27-.02-.35.05-.6.01-.64-.11-1.29-1.03-1.08-1.87.12-.47.48-.78.66-.91Z"/>
  <path class="st1" d="M25.36,11.42h0s-.07-.98-.43-1.09c-.32-.1-.8.49-.83.52-.49.61-.75,1.66-.23,2.59.48.87,1.47,1.34,2.29,1.38.74.04,1.79-.27,1.79-.27h0s.51-.25.79-.66c0,0,.01-.02.01-.02q-.21-.1-.63-.3.42.2.63.3c-.42-.3-.99-.6-1.53-.46-.23.06-.27.15-.49.19-.57.1-1.44-.47-1.57-1.23-.07-.43.11-.79.21-.96Z"/>
</svg>